<?xml version="1.0" encoding="UTF-8"?>
<svg id="_레이어_2" data-name="레이어 2" xmlns="http://www.w3.org/2000/svg" viewBox="0 0 395.47 169.67">
  <defs>
    <style>
      .cls-1 {
        fill: #0A0A0A;
      }
    </style>
  </defs>
  <g id="_레이어_1-2" data-name="레이어 1">
    <g>
      <path class="cls-1" d="M5.58,165.84c-.78,0-1.31,0-1.6,0l-3.97-.04L1.58,0l4.08.15c7.4.27,181.37,7.44,180.62,86.92-.73,76.48-161.58,78.77-180.7,78.77ZM9.45,8.3l-1.43,149.56c25.94-.36,169.68-5.32,170.31-70.87C178.96,21.43,35.66,9.86,9.45,8.3Z"/>
      <path class="cls-1" d="M277.02,169.67l-185.99-1.77L156.73,3.12l61.92.59,58.37,165.96ZM102.71,160.06l163.05,1.55L213,11.61l-50.9-.49-59.39,148.94Z"/>
      <polygon class="cls-1" points="393.97 165.68 386.02 165.6 386.82 81.55 241.36 81.55 241.36 164.07 233.41 164.18 229.01 6.44 236.96 6.21 238.83 73.6 383.37 73.6 387.54 7.54 395.47 7.83 393.97 165.68"/>
    </g>
  </g>
</svg>
